<mxfile host="65bd71144e">
    <diagram id="QlCR2DnyMMZp9iBHJ9pp" name="Page-1">
        <mxGraphModel dx="675" dy="669" grid="1" gridSize="10" guides="1" tooltips="1" connect="1" arrows="1" fold="1" page="1" pageScale="1" pageWidth="827" pageHeight="1169" math="0" shadow="0">
            <root>
                <mxCell id="0"/>
                <mxCell id="1" parent="0"/>
                <mxCell id="cZeVNT-f6QpN3j4nD5KL-1" value="" style="sketch=0;pointerEvents=1;shadow=0;dashed=0;html=1;strokeColor=none;labelPosition=center;verticalLabelPosition=bottom;verticalAlign=top;outlineConnect=0;align=center;shape=mxgraph.office.concepts.folder;fillColor=#2072B8;" parent="1" vertex="1">
                    <mxGeometry x="160" y="240" width="100" height="70" as="geometry"/>
                </mxCell>
                <mxCell id="cZeVNT-f6QpN3j4nD5KL-2" value="" style="sketch=0;pointerEvents=1;shadow=0;dashed=0;html=1;strokeColor=none;labelPosition=center;verticalLabelPosition=bottom;verticalAlign=top;outlineConnect=0;align=center;shape=mxgraph.office.concepts.folder;fillColor=#2072B8;" parent="1" vertex="1">
                    <mxGeometry x="330" y="340" width="100" height="70" as="geometry"/>
                </mxCell>
                <mxCell id="cZeVNT-f6QpN3j4nD5KL-3" value="" style="sketch=0;pointerEvents=1;shadow=0;dashed=0;html=1;strokeColor=none;labelPosition=center;verticalLabelPosition=bottom;verticalAlign=top;outlineConnect=0;align=center;shape=mxgraph.office.concepts.folder;fillColor=#99CCFF;" parent="1" vertex="1">
                    <mxGeometry x="330" y="780" width="100" height="70" as="geometry"/>
                </mxCell>
                <mxCell id="cZeVNT-f6QpN3j4nD5KL-4" value="" style="sketch=0;pointerEvents=1;shadow=0;dashed=0;html=1;strokeColor=none;labelPosition=center;verticalLabelPosition=bottom;verticalAlign=top;outlineConnect=0;align=center;shape=mxgraph.office.concepts.folder;fillColor=#2072B8;" parent="1" vertex="1">
                    <mxGeometry x="330" y="620" width="100" height="70" as="geometry"/>
                </mxCell>
                <mxCell id="cZeVNT-f6QpN3j4nD5KL-5" value="" style="sketch=0;pointerEvents=1;shadow=0;dashed=0;html=1;strokeColor=none;fillColor=#505050;labelPosition=center;verticalLabelPosition=bottom;verticalAlign=top;outlineConnect=0;align=center;shape=mxgraph.office.concepts.properties;" parent="1" vertex="1">
                    <mxGeometry x="480" y="410" width="50" height="49" as="geometry"/>
                </mxCell>
                <mxCell id="cZeVNT-f6QpN3j4nD5KL-6" value="" style="sketch=0;pointerEvents=1;shadow=0;dashed=0;html=1;strokeColor=none;fillColor=#505050;labelPosition=center;verticalLabelPosition=bottom;verticalAlign=top;outlineConnect=0;align=center;shape=mxgraph.office.concepts.properties;" parent="1" vertex="1">
                    <mxGeometry x="480" y="470" width="50" height="49" as="geometry"/>
                </mxCell>
                <mxCell id="cZeVNT-f6QpN3j4nD5KL-7" value="" style="sketch=0;pointerEvents=1;shadow=0;dashed=0;html=1;strokeColor=none;fillColor=#505050;labelPosition=center;verticalLabelPosition=bottom;verticalAlign=top;outlineConnect=0;align=center;shape=mxgraph.office.concepts.properties;" parent="1" vertex="1">
                    <mxGeometry x="480" y="530" width="50" height="49" as="geometry"/>
                </mxCell>
                <mxCell id="cZeVNT-f6QpN3j4nD5KL-8" value="" style="sketch=0;pointerEvents=1;shadow=0;dashed=0;html=1;strokeColor=none;fillColor=#505050;labelPosition=center;verticalLabelPosition=bottom;verticalAlign=top;outlineConnect=0;align=center;shape=mxgraph.office.concepts.properties;" parent="1" vertex="1">
                    <mxGeometry x="480" y="701" width="50" height="49" as="geometry"/>
                </mxCell>
                <mxCell id="cZeVNT-f6QpN3j4nD5KL-9" value="" style="sketch=0;pointerEvents=1;shadow=0;dashed=0;html=1;strokeColor=none;fillColor=#505050;labelPosition=center;verticalLabelPosition=bottom;verticalAlign=top;outlineConnect=0;align=center;shape=mxgraph.office.concepts.properties;" parent="1" vertex="1">
                    <mxGeometry x="480" y="870" width="50" height="49" as="geometry"/>
                </mxCell>
                <mxCell id="cZeVNT-f6QpN3j4nD5KL-10" value="sample-cp4d.yaml" style="text;html=1;align=left;verticalAlign=middle;resizable=0;points=[];autosize=1;strokeColor=none;fillColor=none;" parent="1" vertex="1">
                    <mxGeometry x="550" y="410" width="110" height="20" as="geometry"/>
                </mxCell>
                <mxCell id="cZeVNT-f6QpN3j4nD5KL-11" value="sample-infra.yaml" style="text;html=1;align=left;verticalAlign=middle;resizable=0;points=[];autosize=1;strokeColor=none;fillColor=none;" parent="1" vertex="1">
                    <mxGeometry x="550" y="470" width="110" height="20" as="geometry"/>
                </mxCell>
                <mxCell id="cZeVNT-f6QpN3j4nD5KL-12" value="sample-ocp.yaml" style="text;html=1;align=left;verticalAlign=middle;resizable=0;points=[];autosize=1;strokeColor=none;fillColor=none;" parent="1" vertex="1">
                    <mxGeometry x="550" y="530" width="110" height="20" as="geometry"/>
                </mxCell>
                <mxCell id="cZeVNT-f6QpN3j4nD5KL-13" value="defaults.yaml" style="text;html=1;align=left;verticalAlign=middle;resizable=0;points=[];autosize=1;strokeColor=none;fillColor=none;" parent="1" vertex="1">
                    <mxGeometry x="550" y="880" width="90" height="20" as="geometry"/>
                </mxCell>
                <mxCell id="cZeVNT-f6QpN3j4nD5KL-14" value="sample.inv" style="text;html=1;align=left;verticalAlign=middle;resizable=0;points=[];autosize=1;strokeColor=none;fillColor=none;" parent="1" vertex="1">
                    <mxGeometry x="550" y="710" width="70" height="20" as="geometry"/>
                </mxCell>
                <mxCell id="cZeVNT-f6QpN3j4nD5KL-32" value="" style="endArrow=none;html=1;edgeStyle=orthogonalEdgeStyle;" parent="1" source="cZeVNT-f6QpN3j4nD5KL-1" target="cZeVNT-f6QpN3j4nD5KL-4" edge="1">
                    <mxGeometry width="50" height="50" relative="1" as="geometry">
                        <mxPoint x="160" y="390" as="sourcePoint"/>
                        <mxPoint x="240" y="450" as="targetPoint"/>
                        <Array as="points">
                            <mxPoint x="210" y="660"/>
                        </Array>
                    </mxGeometry>
                </mxCell>
                <mxCell id="cZeVNT-f6QpN3j4nD5KL-33" value="" style="endArrow=none;html=1;edgeStyle=orthogonalEdgeStyle;" parent="1" target="cZeVNT-f6QpN3j4nD5KL-2" edge="1">
                    <mxGeometry width="50" height="50" relative="1" as="geometry">
                        <mxPoint x="210" y="310" as="sourcePoint"/>
                        <mxPoint x="340" y="645" as="targetPoint"/>
                        <Array as="points">
                            <mxPoint x="210" y="380"/>
                        </Array>
                    </mxGeometry>
                </mxCell>
                <mxCell id="cZeVNT-f6QpN3j4nD5KL-34" value="" style="endArrow=none;html=1;edgeStyle=orthogonalEdgeStyle;" parent="1" source="cZeVNT-f6QpN3j4nD5KL-1" target="cZeVNT-f6QpN3j4nD5KL-3" edge="1">
                    <mxGeometry width="50" height="50" relative="1" as="geometry">
                        <mxPoint x="220" y="320" as="sourcePoint"/>
                        <mxPoint x="340" y="390" as="targetPoint"/>
                        <Array as="points">
                            <mxPoint x="210" y="820"/>
                        </Array>
                    </mxGeometry>
                </mxCell>
                <mxCell id="cZeVNT-f6QpN3j4nD5KL-35" value="" style="endArrow=classic;dashed=1;html=1;dashPattern=1 3;strokeWidth=2;edgeStyle=orthogonalEdgeStyle;" parent="1" source="cZeVNT-f6QpN3j4nD5KL-9" target="cZeVNT-f6QpN3j4nD5KL-6" edge="1">
                    <mxGeometry width="50" height="50" relative="1" as="geometry">
                        <mxPoint x="660" y="730" as="sourcePoint"/>
                        <mxPoint x="710" y="680" as="targetPoint"/>
                        <Array as="points">
                            <mxPoint x="505" y="930"/>
                            <mxPoint x="740" y="930"/>
                            <mxPoint x="740" y="495"/>
                        </Array>
                    </mxGeometry>
                </mxCell>
                <mxCell id="cZeVNT-f6QpN3j4nD5KL-37" value="" style="endArrow=none;html=1;edgeStyle=orthogonalEdgeStyle;" parent="1" source="cZeVNT-f6QpN3j4nD5KL-2" target="cZeVNT-f6QpN3j4nD5KL-5" edge="1">
                    <mxGeometry width="50" height="50" relative="1" as="geometry">
                        <mxPoint x="220" y="320" as="sourcePoint"/>
                        <mxPoint x="340" y="390" as="targetPoint"/>
                        <Array as="points">
                            <mxPoint x="380" y="435"/>
                        </Array>
                    </mxGeometry>
                </mxCell>
                <mxCell id="cZeVNT-f6QpN3j4nD5KL-38" value="" style="endArrow=none;html=1;edgeStyle=orthogonalEdgeStyle;" parent="1" source="cZeVNT-f6QpN3j4nD5KL-2" target="cZeVNT-f6QpN3j4nD5KL-6" edge="1">
                    <mxGeometry width="50" height="50" relative="1" as="geometry">
                        <mxPoint x="390" y="420" as="sourcePoint"/>
                        <mxPoint x="490" y="445" as="targetPoint"/>
                        <Array as="points">
                            <mxPoint x="380" y="495"/>
                        </Array>
                    </mxGeometry>
                </mxCell>
                <mxCell id="cZeVNT-f6QpN3j4nD5KL-39" value="" style="endArrow=none;html=1;edgeStyle=orthogonalEdgeStyle;" parent="1" source="cZeVNT-f6QpN3j4nD5KL-2" target="cZeVNT-f6QpN3j4nD5KL-7" edge="1">
                    <mxGeometry width="50" height="50" relative="1" as="geometry">
                        <mxPoint x="390" y="420" as="sourcePoint"/>
                        <mxPoint x="490" y="505" as="targetPoint"/>
                        <Array as="points">
                            <mxPoint x="380" y="555"/>
                        </Array>
                    </mxGeometry>
                </mxCell>
                <mxCell id="cZeVNT-f6QpN3j4nD5KL-40" value="" style="endArrow=none;html=1;edgeStyle=orthogonalEdgeStyle;" parent="1" source="cZeVNT-f6QpN3j4nD5KL-4" target="cZeVNT-f6QpN3j4nD5KL-8" edge="1">
                    <mxGeometry width="50" height="50" relative="1" as="geometry">
                        <mxPoint x="440" y="660" as="sourcePoint"/>
                        <mxPoint x="480" y="692.5" as="targetPoint"/>
                        <Array as="points">
                            <mxPoint x="380" y="726"/>
                        </Array>
                    </mxGeometry>
                </mxCell>
                <mxCell id="cZeVNT-f6QpN3j4nD5KL-41" value="" style="endArrow=none;html=1;edgeStyle=orthogonalEdgeStyle;" parent="1" source="cZeVNT-f6QpN3j4nD5KL-9" target="cZeVNT-f6QpN3j4nD5KL-3" edge="1">
                    <mxGeometry width="50" height="50" relative="1" as="geometry">
                        <mxPoint x="380" y="830" as="sourcePoint"/>
                        <mxPoint x="310" y="690" as="targetPoint"/>
                        <Array as="points"/>
                    </mxGeometry>
                </mxCell>
                <mxCell id="cZeVNT-f6QpN3j4nD5KL-42" value="config" style="text;html=1;resizable=0;autosize=1;align=center;verticalAlign=middle;points=[];fillColor=none;strokeColor=none;rounded=0;" parent="1" vertex="1">
                    <mxGeometry x="389" y="320" width="50" height="20" as="geometry"/>
                </mxCell>
                <mxCell id="cZeVNT-f6QpN3j4nD5KL-43" value="defaults" style="text;html=1;resizable=0;autosize=1;align=center;verticalAlign=middle;points=[];fillColor=none;strokeColor=none;rounded=0;" parent="1" vertex="1">
                    <mxGeometry x="377" y="750" width="60" height="20" as="geometry"/>
                </mxCell>
                <mxCell id="cZeVNT-f6QpN3j4nD5KL-44" value="inventory" style="text;html=1;resizable=0;autosize=1;align=center;verticalAlign=middle;points=[];fillColor=none;strokeColor=none;rounded=0;" parent="1" vertex="1">
                    <mxGeometry x="377" y="590" width="60" height="20" as="geometry"/>
                </mxCell>
                <mxCell id="cZeVNT-f6QpN3j4nD5KL-45" value="sample-config" style="text;html=1;resizable=0;autosize=1;align=center;verticalAlign=middle;points=[];fillColor=none;strokeColor=none;rounded=0;" parent="1" vertex="1">
                    <mxGeometry x="180" y="220" width="90" height="20" as="geometry"/>
                </mxCell>
                <mxCell id="aEtBSt7Dq3tBHTkHoR6Y-1" value="" style="sketch=0;pointerEvents=1;shadow=0;dashed=0;html=1;strokeColor=none;labelPosition=center;verticalLabelPosition=bottom;verticalAlign=top;outlineConnect=0;align=center;shape=mxgraph.office.concepts.folder;fillColor=#99CCFF;" parent="1" vertex="1">
                    <mxGeometry x="330" y="950" width="100" height="70" as="geometry"/>
                </mxCell>
                <mxCell id="aEtBSt7Dq3tBHTkHoR6Y-2" value="" style="endArrow=none;html=1;edgeStyle=orthogonalEdgeStyle;" parent="1" source="cZeVNT-f6QpN3j4nD5KL-1" target="aEtBSt7Dq3tBHTkHoR6Y-1" edge="1">
                    <mxGeometry width="50" height="50" relative="1" as="geometry">
                        <mxPoint x="220" y="320" as="sourcePoint"/>
                        <mxPoint x="340" y="810" as="targetPoint"/>
                        <Array as="points">
                            <mxPoint x="210" y="990"/>
                        </Array>
                    </mxGeometry>
                </mxCell>
                <mxCell id="aEtBSt7Dq3tBHTkHoR6Y-3" value="assets" style="text;html=1;resizable=0;autosize=1;align=center;verticalAlign=middle;points=[];fillColor=none;strokeColor=none;rounded=0;" parent="1" vertex="1">
                    <mxGeometry x="387" y="930" width="50" height="20" as="geometry"/>
                </mxCell>
                <mxCell id="aEtBSt7Dq3tBHTkHoR6Y-4" value="" style="sketch=0;pointerEvents=1;shadow=0;dashed=0;html=1;strokeColor=none;labelPosition=center;verticalLabelPosition=bottom;verticalAlign=top;outlineConnect=0;align=center;shape=mxgraph.office.concepts.folder;fillColor=#99CCFF;" parent="1" vertex="1">
                    <mxGeometry x="480" y="1030" width="70" height="50" as="geometry"/>
                </mxCell>
                <mxCell id="aEtBSt7Dq3tBHTkHoR6Y-5" value="cp4d" style="text;html=1;resizable=0;autosize=1;align=center;verticalAlign=middle;points=[];fillColor=none;strokeColor=none;rounded=0;" parent="1" vertex="1">
                    <mxGeometry x="515" y="1010" width="40" height="20" as="geometry"/>
                </mxCell>
                <mxCell id="aEtBSt7Dq3tBHTkHoR6Y-6" value="" style="sketch=0;pointerEvents=1;shadow=0;dashed=0;html=1;strokeColor=none;labelPosition=center;verticalLabelPosition=bottom;verticalAlign=top;outlineConnect=0;align=center;shape=mxgraph.office.concepts.folder;fillColor=#99CCFF;" parent="1" vertex="1">
                    <mxGeometry x="600" y="1110" width="70" height="50" as="geometry"/>
                </mxCell>
                <mxCell id="aEtBSt7Dq3tBHTkHoR6Y-8" value="" style="sketch=0;pointerEvents=1;shadow=0;dashed=0;html=1;strokeColor=none;labelPosition=center;verticalLabelPosition=bottom;verticalAlign=top;outlineConnect=0;align=center;shape=mxgraph.office.concepts.folder;fillColor=#99CCFF;" parent="1" vertex="1">
                    <mxGeometry x="600" y="1240" width="70" height="50" as="geometry"/>
                </mxCell>
                <mxCell id="aEtBSt7Dq3tBHTkHoR6Y-9" value="asset1" style="text;html=1;resizable=0;autosize=1;align=center;verticalAlign=middle;points=[];fillColor=none;strokeColor=none;rounded=0;" parent="1" vertex="1">
                    <mxGeometry x="630" y="1090" width="50" height="20" as="geometry"/>
                </mxCell>
                <mxCell id="aEtBSt7Dq3tBHTkHoR6Y-10" value="asset2" style="text;html=1;resizable=0;autosize=1;align=center;verticalAlign=middle;points=[];fillColor=none;strokeColor=none;rounded=0;" parent="1" vertex="1">
                    <mxGeometry x="630" y="1220" width="50" height="20" as="geometry"/>
                </mxCell>
                <mxCell id="aEtBSt7Dq3tBHTkHoR6Y-11" value="" style="sketch=0;pointerEvents=1;shadow=0;dashed=0;html=1;strokeColor=none;fillColor=#505050;labelPosition=center;verticalLabelPosition=bottom;verticalAlign=top;outlineConnect=0;align=center;shape=mxgraph.office.concepts.properties;" parent="1" vertex="1">
                    <mxGeometry x="730" y="1140" width="50" height="20" as="geometry"/>
                </mxCell>
                <mxCell id="aEtBSt7Dq3tBHTkHoR6Y-12" value="" style="sketch=0;pointerEvents=1;shadow=0;dashed=0;html=1;strokeColor=none;fillColor=#505050;labelPosition=center;verticalLabelPosition=bottom;verticalAlign=top;outlineConnect=0;align=center;shape=mxgraph.office.concepts.properties;" parent="1" vertex="1">
                    <mxGeometry x="730" y="1270" width="50" height="20" as="geometry"/>
                </mxCell>
                <mxCell id="aEtBSt7Dq3tBHTkHoR6Y-13" value="cp4d-asset.sh" style="text;html=1;resizable=0;autosize=1;align=center;verticalAlign=middle;points=[];fillColor=none;strokeColor=none;rounded=0;" parent="1" vertex="1">
                    <mxGeometry x="710" y="1120" width="90" height="20" as="geometry"/>
                </mxCell>
                <mxCell id="aEtBSt7Dq3tBHTkHoR6Y-14" value="cp4d-asset.yaml" style="text;html=1;resizable=0;autosize=1;align=center;verticalAlign=middle;points=[];fillColor=none;strokeColor=none;rounded=0;" parent="1" vertex="1">
                    <mxGeometry x="705" y="1250" width="100" height="20" as="geometry"/>
                </mxCell>
                <mxCell id="aEtBSt7Dq3tBHTkHoR6Y-15" value="" style="endArrow=none;html=1;edgeStyle=orthogonalEdgeStyle;" parent="1" source="aEtBSt7Dq3tBHTkHoR6Y-1" target="aEtBSt7Dq3tBHTkHoR6Y-4" edge="1">
                    <mxGeometry width="50" height="50" relative="1" as="geometry">
                        <mxPoint x="380" y="1030" as="sourcePoint"/>
                        <mxPoint x="460" y="1070" as="targetPoint"/>
                        <Array as="points">
                            <mxPoint x="380" y="1055"/>
                        </Array>
                    </mxGeometry>
                </mxCell>
                <mxCell id="aEtBSt7Dq3tBHTkHoR6Y-17" value="" style="endArrow=none;html=1;edgeStyle=orthogonalEdgeStyle;" parent="1" source="aEtBSt7Dq3tBHTkHoR6Y-4" target="aEtBSt7Dq3tBHTkHoR6Y-6" edge="1">
                    <mxGeometry width="50" height="50" relative="1" as="geometry">
                        <mxPoint x="430" y="1125" as="sourcePoint"/>
                        <mxPoint x="530" y="1160" as="targetPoint"/>
                        <Array as="points">
                            <mxPoint x="515" y="1140"/>
                        </Array>
                    </mxGeometry>
                </mxCell>
                <mxCell id="aEtBSt7Dq3tBHTkHoR6Y-18" value="" style="endArrow=none;html=1;edgeStyle=orthogonalEdgeStyle;" parent="1" source="aEtBSt7Dq3tBHTkHoR6Y-4" target="aEtBSt7Dq3tBHTkHoR6Y-8" edge="1">
                    <mxGeometry width="50" height="50" relative="1" as="geometry">
                        <mxPoint x="525" y="1090" as="sourcePoint"/>
                        <mxPoint x="610" y="1150" as="targetPoint"/>
                        <Array as="points">
                            <mxPoint x="515" y="1270"/>
                        </Array>
                    </mxGeometry>
                </mxCell>
                <mxCell id="aEtBSt7Dq3tBHTkHoR6Y-19" value="" style="endArrow=none;html=1;edgeStyle=orthogonalEdgeStyle;" parent="1" source="aEtBSt7Dq3tBHTkHoR6Y-6" target="aEtBSt7Dq3tBHTkHoR6Y-11" edge="1">
                    <mxGeometry width="50" height="50" relative="1" as="geometry">
                        <mxPoint x="525" y="1090" as="sourcePoint"/>
                        <mxPoint x="610" y="1150" as="targetPoint"/>
                        <Array as="points"/>
                    </mxGeometry>
                </mxCell>
                <mxCell id="aEtBSt7Dq3tBHTkHoR6Y-20" value="" style="endArrow=none;html=1;edgeStyle=orthogonalEdgeStyle;" parent="1" source="aEtBSt7Dq3tBHTkHoR6Y-8" target="aEtBSt7Dq3tBHTkHoR6Y-12" edge="1">
                    <mxGeometry width="50" height="50" relative="1" as="geometry">
                        <mxPoint x="680" y="1200" as="sourcePoint"/>
                        <mxPoint x="740" y="1186" as="targetPoint"/>
                        <Array as="points"/>
                    </mxGeometry>
                </mxCell>
                <mxCell id="aEtBSt7Dq3tBHTkHoR6Y-22" value="" style="sketch=0;pointerEvents=1;shadow=0;dashed=0;html=1;strokeColor=none;fillColor=#505050;labelPosition=center;verticalLabelPosition=bottom;verticalAlign=top;outlineConnect=0;align=center;shape=mxgraph.office.concepts.properties;" parent="1" vertex="1">
                    <mxGeometry x="730" y="1180" width="50" height="20" as="geometry"/>
                </mxCell>
                <mxCell id="aEtBSt7Dq3tBHTkHoR6Y-23" value="ws_project.zip" style="text;html=1;resizable=0;autosize=1;align=center;verticalAlign=middle;points=[];fillColor=none;strokeColor=none;rounded=0;" parent="1" vertex="1">
                    <mxGeometry x="710" y="1160" width="90" height="20" as="geometry"/>
                </mxCell>
                <mxCell id="aEtBSt7Dq3tBHTkHoR6Y-24" value="" style="endArrow=none;html=1;edgeStyle=orthogonalEdgeStyle;" parent="1" source="aEtBSt7Dq3tBHTkHoR6Y-6" target="aEtBSt7Dq3tBHTkHoR6Y-22" edge="1">
                    <mxGeometry width="50" height="50" relative="1" as="geometry">
                        <mxPoint x="680" y="1135" as="sourcePoint"/>
                        <mxPoint x="740" y="1160" as="targetPoint"/>
                        <Array as="points">
                            <mxPoint x="680" y="1135"/>
                            <mxPoint x="680" y="1190"/>
                        </Array>
                    </mxGeometry>
                </mxCell>
                <mxCell id="2" value="missing&lt;br&gt;values" style="text;html=1;resizable=0;autosize=1;align=center;verticalAlign=middle;points=[];fillColor=none;strokeColor=none;rounded=0;" vertex="1" parent="1">
                    <mxGeometry x="680" y="665" width="60" height="30" as="geometry"/>
                </mxCell>
            </root>
        </mxGraphModel>
    </diagram>
</mxfile>